{"accessors":[{"bufferView":0,"componentType":5121,"count":186,"max":[138],"min":[0],"type":"SCALAR"},{"bufferView":1,"componentType":5126,"count":139,"max":[1.0,1.0,1.0],"min":[-1.0,-1.0,-1.0],"type":"VEC3"},{"bufferView":2,"componentType":5126,"count":139,"max":[0.89097660779953,0.44548842310905457,0.8909766674041748],"min":[-0.8909767866134644,-1.0,-0.8909766674041748],"type":"VEC3"},{"bufferView":3,"componentType":5126,"count":139,"max":[0.9900000095367432,0.989999994635582],"min":[0.01000000536441803,0.5099999904632568],"type":"VEC2"},{"bufferView":4,"componentType":5121,"count":36,"max":[23],"min":[0],"type":"SCALAR"},{"bufferView":5,"componentType":5126,"count":24,"max":[1.0,1.0,1.0],"min":[-1.0,-1.0,-1.0],"type":"VEC3"},{"bufferView":6,"componentType":5126,"count":24,"max":[1.0,1.0,1.0],"min":[-1.0,-1.0,-1.0],"type":"VEC3"},{"bufferView":7,"componentType":5126,"count":24,"max":[0.875,1.0],"min":[0.125,0.0],"type":"VEC2"},{"bufferView":8,"componentType":5123,"count":2880,"max":[1983],"min":[0],"type":"SCALAR"},{"bufferView":9,"componentType":5126,"count":1984,"max":[1.000000238418579,1.0,1.0000003576278687],"min":[-0.9999998211860657,-1.0,-1.0],"type":"VEC3"},{"bufferView":10,"componentType":5126,"count":1984,"max":[0.9904382228851318,0.99513840675354,0.9904382824897766],"min":[-0.9904382228851318,-0.99513840675354,-0.9904384016990662],"type":"VEC3"},{"bufferView":11,"componentType":5126,"count":1984,"max":[1.000000238418579,1.0],"min":[0.0,0.0],"type":"VEC2"},{"bufferView":12,"componentType":5123,"count":2130,"max":[488],"min":[0],"type":"SCALAR"},{"bufferView":13,"componentType":5126,"count":489,"max":[3.5658068656921387,3.6046159267425537,3.5658071041107178],"min":[-3.5658061504364014,0.0,-3.565807342529297],"type":"VEC3"},{"bufferView":14,"componentType":5126,"count":489,"max":[0.999359130859375,1.0,0.9993591904640198],"min":[-0.999359130859375,-1.0,-0.999359130859375],"type":"VEC3"},{"bufferView":15,"componentType":5126,"count":489,"max":[0.9999000430107117,0.9999000199895818],"min":[9.998001041822135e-05,9.995698928833008e-05],"type":"VEC2"}],"asset":{"generator":"Soft8Soft Verge3D for Blender add-on","version":"2.0"},"bufferViews":[{"buffer":0,"byteLength":186,"byteOffset":0,"target":34963},{"buffer":0,"byteLength":1668,"byteOffset":188,"target":34962},{"buffer":0,"byteLength":1668,"byteOffset":1856,"target":34962},{"buffer":0,"byteLength":1112,"byteOffset":3524,"target":34962},{"buffer":0,"byteLength":36,"byteOffset":4636,"target":34963},{"buffer":0,"byteLength":288,"byteOffset":4672,"target":34962},{"buffer":0,"byteLength":288,"byteOffset":4960,"target":34962},{"buffer":0,"byteLength":192,"byteOffset":5248,"target":34962},{"buffer":0,"byteLength":5760,"byteOffset":5440,"target":34963},{"buffer":0,"byteLength":23808,"byteOffset":11200,"target":34962},{"buffer":0,"byteLength":23808,"byteOffset":35008,"target":34962},{"buffer":0,"byteLength":15872,"byteOffset":58816,"target":34962},{"buffer":0,"byteLength":4260,"byteOffset":74688,"target":34963},{"buffer":0,"byteLength":5868,"byteOffset":78948,"target":34962},{"buffer":0,"byteLength":5868,"byteOffset":84816,"target":34962},{"buffer":0,"byteLength":3912,"byteOffset":90684,"target":34962}],"buffers":[{"byteLength":94596,"uri":"Mashine.bin"}],"cameras":[{"extensions":{"S8S_v3d_camera_data":{"controls":"ORBIT","enablePan":true,"moveSpeed":1.0,"orbitMaxDistance":40.0,"orbitMaxPolarAngle":1.5707963705062866,"orbitMinDistance":10.0,"orbitMinPolarAngle":0.0,"orbitTarget":[0.0,0.0,-0.0],"rotateSpeed":1.0,"viewportFitInitialAspect":1.7777777777777777,"viewportFitType":"AUTO"}},"name":"Camera","perspective":{"aspectRatio":1.7777777777777777,"yfov":0.39959652046304894,"zfar":100.0,"znear":0.10000000149011612},"type":"perspective"}],"extensions":{"S8S_v3d_data":{"lights":[{"color":[1.0,1.0,1.0],"constantAttenuation":1.0,"decay":2,"distance":25.0,"intensity":5000.0,"linearAttenuation":0.0,"name":"Point","profile":"blender","quadraticAttenuation":0.04,"shadow":{"bias":-1.0,"cameraFar":40.0,"cameraFov":0,"cameraNear":0.05000000074505806,"cameraOrthoBottom":-5.0,"cameraOrthoLeft":-5.0,"cameraOrthoRight":5.0,"cameraOrthoTop":5.0,"expBias":2.5,"mapSize":512,"radius":1},"type":"point"},{"color":[0,0,0],"name":"Ambient_Scene","profile":"blender","type":"ambient"}]}},"extensionsUsed":["S8S_v3d_material_data","S8S_v3d_camera_data","S8S_v3d_data","S8S_v3d_mesh_data","S8S_v3d_node_data","S8S_v3d_scene_data"],"materials":[{"extensions":{"S8S_v3d_material_data":{"nodeGraph":{"edges":[{"fromNode":1,"fromOutput":0,"toInput":0,"toNode":0}],"nodes":[{"inputs":[[0,0,0,0],[0,0,0,0],[0.0,0.0,0.0]],"is_active_output":true,"name":"Material Output","outputs":[],"type":"OUTPUT_MATERIAL"},{"inputs":[[1.0,1.0,1.0,1.0],1.0],"is_active_output":false,"name":"Emission","outputs":[[0,0,0,0]],"type":"EMISSION"}]},"useCastShadows":true}},"name":"Material"},{"extensions":{"S8S_v3d_material_data":{"nodeGraph":{"edges":[{"fromNode":1,"fromOutput":0,"toInput":0,"toNode":0}],"nodes":[{"inputs":[[0,0,0,0],[0,0,0,0],[0.0,0.0,0.0]],"is_active_output":true,"name":"Material Output","outputs":[],"type":"OUTPUT_MATERIAL"},{"inputs":[[0.04025531932711601,0.04025531932711601,0.04025531932711601,1.0],0.0,[1.0,0.20000000298023224,0.10000000149011612],[0.800000011920929,0.800000011920929,0.800000011920929,1.0],0.0,0.5,0.0,0.5,0.0,0.0,0.0,0.5,0.0,0.029999999329447746,1.4500000476837158,0.0,0.0,[0.0,0.0,0.0,1.0],1.0,[0.0,0.0,0.0],[0.0,0.0,0.0],[0.0,0.0,0.0]],"is_active_output":false,"name":"Principled BSDF","outputs":[[0,0,0,0]],"type":"BSDF_PRINCIPLED"}]},"useCastShadows":true}},"name":"Material.001"},{"extensions":{"S8S_v3d_material_data":{"nodeGraph":{"edges":[{"fromNode":1,"fromOutput":0,"toInput":0,"toNode":0}],"nodes":[{"inputs":[[0,0,0,0],[0,0,0,0]],"is_active_output":true,"name":"World Output","outputs":[],"type":"OUTPUT_WORLD"},{"inputs":[[0.05087608844041824,0.05087608844041824,0.05087608844041824,1.0],1.0],"is_active_output":false,"name":"Background","outputs":[[0,0,0,0]],"type":"BACKGROUND"}]},"useCastShadows":true}},"name":"Verge3D_Environment_World"}],"meshes":[{"extensions":{"S8S_v3d_mesh_data":{"colorLayers":{},"uvLayers":{"UVMap":"TEXCOORD_0"}}},"name":"Cone","primitives":[{"attributes":{"NORMAL":2,"POSITION":1,"TEXCOORD_0":3},"indices":0,"material":1,"mode":4}]},{"extensions":{"S8S_v3d_mesh_data":{"colorLayers":{},"uvLayers":{"UVMap":"TEXCOORD_0"}}},"name":"Cube","primitives":[{"attributes":{"NORMAL":6,"POSITION":5,"TEXCOORD_0":7},"indices":4,"material":1,"mode":4}]},{"extensions":{"S8S_v3d_mesh_data":{"colorLayers":{},"uvLayers":{"UVMap":"TEXCOORD_0"}}},"name":"Sphere","primitives":[{"attributes":{"NORMAL":10,"POSITION":9,"TEXCOORD_0":11},"indices":8,"material":1,"mode":4}]},{"extensions":{"S8S_v3d_mesh_data":{"colorLayers":{},"uvLayers":{"UVMap":"TEXCOORD_0"}}},"name":"Sphere.001","primitives":[{"attributes":{"NORMAL":14,"POSITION":13,"TEXCOORD_0":15},"indices":12,"material":0,"mode":4}]}],"nodes":[{"extensions":{"S8S_v3d_node_data":{"frustumCulling":true,"groupNames":["Collection"],"hidden":false,"renderOrder":0,"useShadows":true}},"mesh":1,"name":"Cube","translation":[0.0,0.0,5.325558662414551]},{"extensions":{"S8S_v3d_node_data":{"frustumCulling":true,"groupNames":["Collection"],"hidden":false,"renderOrder":0,"useShadows":true}},"mesh":0,"name":"Cone","translation":[0.0,0.0,-6.441812038421631]},{"extensions":{"S8S_v3d_node_data":{"frustumCulling":true,"groupNames":["Collection"],"hidden":false,"renderOrder":0,"useShadows":true}},"mesh":3,"name":"Background","scale":[11.355688095092773,11.355688095092773,11.355688095092773],"translation":[0.0,-2.1153202056884766,-0.0]},{"camera":0,"extensions":{"S8S_v3d_node_data":{"frustumCulling":true,"groupNames":["Collection"],"hidden":false,"renderOrder":0}},"name":"Camera","rotation":[-0.2021457999944687,0.45527383685112,0.10695407539606094,0.8604788780212402],"scale":[1.0,0.9999998807907104,0.9999999403953552],"translation":[12.787632942199707,6.817965984344482,9.724568367004395]},{"extensions":{"S8S_v3d_node_data":{"frustumCulling":true,"groupNames":["Collection"],"hidden":false,"renderOrder":0,"useShadows":true}},"mesh":2,"name":"Sphere"},{"extensions":{"S8S_v3d_node_data":{"frustumCulling":true,"groupNames":["Collection"],"hidden":false,"light":0,"renderOrder":0}},"name":"Point","rotation":[-0.7071068286895752,0.0,0.0,0.7071068286895752],"scale":[1.0,0.9999999403953552,0.9999999403953552],"translation":[6.040251731872559,4.720038414001465,0.0]}],"scene":0,"scenes":[{"extensions":{"S8S_v3d_scene_data":{"aaMethod":"AUTO","light":1,"physicallyCorrectLights":true,"shadowMap":{"renderReverseSided":false,"renderSingleSided":true,"type":"ESM"},"toneMapping":{"type":"filmicBlender"},"worldMaterial":2}},"extras":{"animFrameRate":24},"name":"Scene","nodes":[0,3,4,1,2,5]}]}
